<svg id="logo" xmlns="http://www.w3.org/2000/svg" width="67.979" height="92.876" viewBox="0 0 67.979 92.876">
  <defs>
    <style>
      .cls-1 {
        fill: #fff;
      }
    </style>
  </defs>
  <g id="Group_11" data-name="Group 11">
    <path id="Path_1" data-name="Path 1" class="cls-1" d="M265.333,44.76a18.934,18.934,0,0,1,3.131,1.774,42.159,42.159,0,0,1,3.971,3.944c.773.847,1.277,1.01,2.137.044a58.665,58.665,0,0,1,4.374-4.329,4.3,4.3,0,0,1,4.694-.788,4.426,4.426,0,0,1,2.922,3.777,4.482,4.482,0,0,1-1.421,3.879c-1.393,1.424-2.788,2.846-4.242,4.205-.666.623-.649,1.043-.006,1.652q2.1,1.991,4.1,4.08c2.074,2.159,2.134,4.888.2,6.8-1.958,1.934-4.634,1.822-6.8-.3-1.333-1.306-2.69-2.592-3.962-3.956-.66-.706-1.085-.773-1.78-.023-1.4,1.5-2.841,2.971-4.365,4.345a4.528,4.528,0,0,1-6.39-.034,4.606,4.606,0,0,1-.126-6.543c1.424-1.562,2.939-3.047,4.478-4.495.625-.588.539-.917-.025-1.46-1.568-1.511-3.126-3.036-4.6-4.637a4.281,4.281,0,0,1-.66-5.038A5.217,5.217,0,0,1,265.333,44.76Z" transform="translate(-220.569 -37.909)"/>
    <path id="Path_2" data-name="Path 2" class="cls-1" d="M149.13,54.188a4.461,4.461,0,0,1,2.518-3.827,3.647,3.647,0,0,1,4.334.56c3.042,2.921,6.041,5.892,8.948,8.948a3.9,3.9,0,0,1-.145,5.415,3.969,3.969,0,0,1-5.55.311c-3.066-2.9-6.032-5.9-8.947-8.954A8.658,8.658,0,0,1,149.13,54.188Z" transform="translate(-126.299 -42.261)"/>
    <path id="Path_3" data-name="Path 3" class="cls-1" d="M221.566,226.988c-.175,2.166-.917,3.386-2.433,4.043a3.675,3.675,0,0,1-4.2-.522c-3.065-2.916-6.084-5.886-9-8.954a3.874,3.874,0,0,1,.28-5.548,3.95,3.95,0,0,1,5.562-.084c2.965,2.84,5.882,5.736,8.7,8.719A7.012,7.012,0,0,1,221.566,226.988Z" transform="translate(-173.529 -181.933)"/>
    <path id="Path_4" data-name="Path 4" class="cls-1" d="M327.458,231.756a12.2,12.2,0,0,1-2.843-1.519c-2.844-2.678-5.6-5.455-8.324-8.253a4.081,4.081,0,1,1,5.758-5.782c2.809,2.714,5.559,5.491,8.308,8.268a3.94,3.94,0,0,1,.908,4.619A4.5,4.5,0,0,1,327.458,231.756Z" transform="translate(-266.777 -182.035)"/>
    <path id="Path_5" data-name="Path 5" class="cls-1" d="M263.691,341.056a3.6,3.6,0,0,1-3.123-2.217,3.7,3.7,0,0,1,.452-4.365c2.923-3.059,5.9-6.067,8.968-8.979a4.054,4.054,0,0,1,5.738,5.689c-1.088,1.274-2.338,2.411-3.521,3.6-1.58,1.589-3.157,3.181-4.752,4.753A4.525,4.525,0,0,1,263.691,341.056Z" transform="translate(-220.256 -274.796)"/>
    <path id="Path_6" data-name="Path 6" class="cls-1" d="M114.835,230.843a3.447,3.447,0,0,1-1.828,3.284,3.061,3.061,0,0,1-3.668-.325c-3.05-2.932-6.067-5.9-8.982-8.97a3.206,3.206,0,0,1,.28-4.545,3.285,3.285,0,0,1,4.568-.09c2.976,2.826,5.84,5.772,8.745,8.674a1.878,1.878,0,0,1,.418.614C114.572,230,114.729,230.531,114.835,230.843Z" transform="translate(-84.299 -185.742)"/>
    <path id="Path_7" data-name="Path 7" class="cls-1" d="M106.757,338.608c-.037-2.175,1.889-3.344,3.524-2.413a5.71,5.71,0,0,1,1.136.957c2.466,2.456,4.966,4.881,7.35,7.414a3.774,3.774,0,0,1,1.073,2.41,2.291,2.291,0,0,1-3.915,1.4c-2.932-2.779-5.753-5.674-8.579-8.559A3.616,3.616,0,0,1,106.757,338.608Z" transform="translate(-90.413 -284.455)"/>
    <path id="Path_8" data-name="Path 8" class="cls-1" d="M213.325,6.808A3.4,3.4,0,0,1,209.9,3.384,3.306,3.306,0,0,1,213.153.01a3.345,3.345,0,0,1,3.526,3.3A3.426,3.426,0,0,1,213.325,6.808Z" transform="translate(-177.766 -0.008)"/>
    <path id="Path_9" data-name="Path 9" class="cls-1" d="M157.94,164.359a3.477,3.477,0,0,1,3.452,3.429,3.408,3.408,0,0,1-3.275,3.4,3.484,3.484,0,0,1-3.573-3.313A3.531,3.531,0,0,1,157.94,164.359Z" transform="translate(-130.884 -139.198)"/>
    <path id="Path_10" data-name="Path 10" class="cls-1" d="M319.806,3.346A3.309,3.309,0,0,1,323.332.062a3.251,3.251,0,0,1,3.233,3.373,3.381,3.381,0,1,1-6.759-.089Z" transform="translate(-270.846 -0.052)"/>
    <path id="Path_11" data-name="Path 11" class="cls-1" d="M48.032,171.1a3.487,3.487,0,0,1-3.512-3.38,3.444,3.444,0,1,1,6.888.078A3.438,3.438,0,0,1,48.032,171.1Z" transform="translate(-37.704 -139.131)"/>
    <path id="Path_12" data-name="Path 12" class="cls-1" d="M51.365,277.584a3.405,3.405,0,0,1-3.562,3.288,3.509,3.509,0,0,1-3.324-3.382,3.619,3.619,0,0,1,3.507-3.432A3.525,3.525,0,0,1,51.365,277.584Z" transform="translate(-37.669 -232.103)"/>
    <path id="Path_13" data-name="Path 13" class="cls-1" d="M100.017,113.205a3.385,3.385,0,0,1,6.768.043,3.418,3.418,0,0,1-3.419,3.434A3.367,3.367,0,0,1,100.017,113.205Z" transform="translate(-84.704 -93.073)"/>
    <path id="Path_14" data-name="Path 14" class="cls-1" d="M213.232,329.4a3.352,3.352,0,0,1,3.392,3.428,3.388,3.388,0,0,1-6.776.006A3.349,3.349,0,0,1,213.232,329.4Z" transform="translate(-177.722 -278.973)"/>
    <path id="Path_15" data-name="Path 15" class="cls-1" d="M54.324,61.362a2.832,2.832,0,1,1-5.661.164,2.832,2.832,0,0,1,5.661-.164Z" transform="translate(-41.211 -49.65)"/>
    <path id="Path_16" data-name="Path 16" class="cls-1" d="M51.55,387.966a2.8,2.8,0,0,1,2.779,2.884,2.832,2.832,0,1,1-5.663-.129A2.753,2.753,0,0,1,51.55,387.966Z" transform="translate(-41.215 -328.572)"/>
    <path id="Path_17" data-name="Path 17" class="cls-1" d="M384.032,390.711a2.823,2.823,0,1,1-5.644.086,2.823,2.823,0,1,1,5.644-.086Z" transform="translate(-320.459 -328.542)"/>
    <path id="Path_18" data-name="Path 18" class="cls-1" d="M3.847,11.976A1.994,1.994,0,0,1,1.98,13.918a2.007,2.007,0,0,1-1.81-1.8,1.805,1.805,0,0,1,1.67-1.88A1.857,1.857,0,0,1,3.847,11.976Z" transform="translate(-0.142 -8.665)"/>
    <path id="Path_19" data-name="Path 19" class="cls-1" d="M113.748,12.084a1.841,1.841,0,1,1-3.68-.08,1.841,1.841,0,0,1,3.68.08Z" transform="translate(-93.216 -8.662)"/>
    <path id="Path_20" data-name="Path 20" class="cls-1" d="M2.027,233.56a2.016,2.016,0,0,1-1.885-1.722,1.834,1.834,0,0,1,1.78-1.952,1.862,1.862,0,0,1,1.9,1.659A2.037,2.037,0,0,1,2.027,233.56Z" transform="translate(-0.115 -194.693)"/>
    <path id="Path_21" data-name="Path 21" class="cls-1" d="M1.948,343.3a1.965,1.965,0,0,1-1.8-1.992,1.849,1.849,0,0,1,1.865-1.69,1.907,1.907,0,0,1,1.82,1.944A2.1,2.1,0,0,1,1.948,343.3Z" transform="translate(-0.125 -287.628)"/>
    <path id="Path_22" data-name="Path 22" class="cls-1" d="M1.8,124.2A1.964,1.964,0,0,1,0,122.21a1.849,1.849,0,0,1,1.865-1.69,1.907,1.907,0,0,1,1.82,1.944A2.1,2.1,0,0,1,1.8,124.2Z" transform="translate(0.002 -102.07)"/>
  </g>
  <g id="Group_12" data-name="Group 12" transform="translate(1.574 72.448)">
    <path id="Path_23" data-name="Path 23" class="cls-1" d="M17.018,494.539a14.223,14.223,0,0,1-3.516-.39,5.521,5.521,0,0,1-2.371-1.159,2.428,2.428,0,0,1-.85-1.872,2.072,2.072,0,0,1,.323-1.131,2.657,2.657,0,0,1,.836-.836,6.264,6.264,0,0,0,2.3,2.52,5.878,5.878,0,0,0,3.112.876,7.663,7.663,0,0,0,3.679-.782,2.517,2.517,0,0,0,1.442-2.344,1.826,1.826,0,0,0-.566-1.361,5.3,5.3,0,0,0-1.509-.984q-.944-.432-2.048-.822t-2.223-.876a12.329,12.329,0,0,1-2.062-1.131,5.1,5.1,0,0,1-1.509-1.591,4.315,4.315,0,0,1-.566-2.264,4.5,4.5,0,0,1,.687-2.425,6.248,6.248,0,0,1,1.953-1.927,10.279,10.279,0,0,1,3.019-1.28,15.491,15.491,0,0,1,3.908-.458,11.774,11.774,0,0,1,2.964.337,5.444,5.444,0,0,1,2.035.929,1.73,1.73,0,0,1,.741,1.375,2.089,2.089,0,0,1-.755,1.751,3.049,3.049,0,0,1-1.94.592,2.964,2.964,0,0,1-2.088-.755,4.756,4.756,0,0,1-1.254-2.156,10.07,10.07,0,0,0-4.271,1.307,2.8,2.8,0,0,0-1.523,2.332,1.678,1.678,0,0,0,.566,1.28,5.207,5.207,0,0,0,1.509.929q.944.4,2.048.808t2.223.876a11.654,11.654,0,0,1,2.062,1.118,5.215,5.215,0,0,1,1.509,1.563,4.117,4.117,0,0,1,.566,2.211,4.694,4.694,0,0,1-.539,2.2,5.409,5.409,0,0,1-1.6,1.833,8.234,8.234,0,0,1-2.641,1.254A13.107,13.107,0,0,1,17.018,494.539Z" transform="translate(-10.28 -474.138)"/>
    <path id="Path_24" data-name="Path 24" class="cls-1" d="M144.754,494.549a1.864,1.864,0,0,1-1.456-.513,2.473,2.473,0,0,1-.458-1.67q0-.781.107-1.927t.337-2.884q.23-1.738.634-4.3t1-6.2l-.836-1.644a10.535,10.535,0,0,1,1.738-.836,4.4,4.4,0,0,1,1.468-.3q1.185,0,1.186,1.428a10.209,10.209,0,0,1-.121,1.052q-.122.836-.323,2.076t-.458,2.722q-.257,1.483-.5,3.005t-.444,2.9q-.2,1.375-.323,2.425a14.987,14.987,0,0,0-.121,1.591,5.2,5.2,0,0,0,.162,1.375,2.706,2.706,0,0,0,.485,1A3.821,3.821,0,0,1,144.754,494.549Zm.727-7.142-.054-1.7,2.615-1.967q1.885-1.4,3.154-2.506a18.786,18.786,0,0,0,2.035-2.021,6.76,6.76,0,0,0,1.105-1.738,4.331,4.331,0,0,0,.337-1.658,1.987,1.987,0,0,0-.054-.445,2.739,2.739,0,0,0-.162-.471,3.142,3.142,0,0,1,1.86-.592,1.757,1.757,0,0,1,1.834,1.834,4.016,4.016,0,0,1-.713,2.183,11.422,11.422,0,0,1-2.25,2.4,43.159,43.159,0,0,1-4.043,2.938Zm10.133,7.114a2.646,2.646,0,0,1-1.389-.351,3.823,3.823,0,0,1-1.173-1.347,27.813,27.813,0,0,1-1.428-2.91l-2.506-5.579,2.722-1.86q.7,1.86,1.5,3.625t1.6,3.275a28.757,28.757,0,0,0,1.563,2.615,8.79,8.79,0,0,0,1.375,1.644,2.073,2.073,0,0,1-.606.444,4.248,4.248,0,0,1-.836.323A3.123,3.123,0,0,1,155.614,494.522Z" transform="translate(-122.546 -474.121)"/>
    <path id="Path_25" data-name="Path 25" class="cls-1" d="M250.832,493.641a5.755,5.755,0,0,1-1.8-.283,3.408,3.408,0,0,1-1.415-.85,1.925,1.925,0,0,1-.553-1.4,1.8,1.8,0,0,1,.511-1.254,1.925,1.925,0,0,1,1.482-.553,2.309,2.309,0,0,1,1.482.472,3.667,3.667,0,0,1,.971,1.2,8.314,8.314,0,0,1,.592,1.456l-.727-.511a4.838,4.838,0,0,0,1.617-.39,2.814,2.814,0,0,0,1.145-1,6.478,6.478,0,0,0,.808-1.872,21.87,21.87,0,0,0,.58-2.991l1.321-9.487,3.449-1.347-1.537,10.834a16.763,16.763,0,0,1-.929,3.625,7.38,7.38,0,0,1-1.549,2.48,5.765,5.765,0,0,1-2.29,1.415A9.843,9.843,0,0,1,250.832,493.641Zm5.282-15.872a16.093,16.093,0,0,1-5.377-.634,2.172,2.172,0,0,1-1.6-2.088,4.656,4.656,0,0,1,.107-.984,2.786,2.786,0,0,1,.3-.822,19.255,19.255,0,0,0,2.411,1.024,24.326,24.326,0,0,0,2.587.755,13.571,13.571,0,0,0,2.332.351,2.98,2.98,0,0,1,.917-1.456,2.216,2.216,0,0,1,1.456-.513,1.917,1.917,0,0,1,1.347.445,1.687,1.687,0,0,1,.485,1.307,2.1,2.1,0,0,1-1.186,1.981A8.406,8.406,0,0,1,256.114,477.768Z" transform="translate(-210.811 -473.24)"/>
    <path id="Path_26" data-name="Path 26" class="cls-1" d="M360.924,494.558a1.864,1.864,0,0,1-1.456-.513,2.473,2.473,0,0,1-.458-1.67q0-.781.095-1.886t.337-2.829q.243-1.725.646-4.3t1-6.294l-.836-1.644a8.746,8.746,0,0,1,1.7-.836,4.569,4.569,0,0,1,1.509-.3q1.185,0,1.186,1.428a10.211,10.211,0,0,1-.121,1.052q-.122.836-.323,2.076t-.458,2.722q-.257,1.483-.5,3.005t-.444,2.9q-.2,1.375-.323,2.425a15.026,15.026,0,0,0-.121,1.591,5.2,5.2,0,0,0,.162,1.375,2.705,2.705,0,0,0,.485,1A3.839,3.839,0,0,1,360.924,494.558Zm4.8-8.247a8.956,8.956,0,0,1-1.535-.135c-.522-.09-1.131-.225-1.833-.4l.377-1.86q.808.108,1.658.162c.566.037,1.154.054,1.765.054l1.995-.485c0,.107,0,.22.014.337s.014.22.014.311a1.835,1.835,0,0,1-.634,1.5A2.786,2.786,0,0,1,365.721,486.311Zm2.964-8.138q-1.052,0-2.076-.095a15.621,15.621,0,0,1-2.035-.323,20.157,20.157,0,0,1-2.035-.579l.646-1.617a29.485,29.485,0,0,0,3.167-.148q1.362-.147,2.668-.39t2.87-.566a2.6,2.6,0,0,1,.121.62c.009.179.014.351.014.513a2.287,2.287,0,0,1-.471,1.51,2.685,2.685,0,0,1-1.24.822A5.18,5.18,0,0,1,368.685,478.172Z" transform="translate(-305.623 -474.129)"/>
  </g>
</svg>
