<?xml version="1.0" encoding="utf-8"?>
<!-- Generator: Adobe Illustrator 27.1.1, SVG Export Plug-In . SVG Version: 6.00 Build 0)  -->
<svg version="1.1" id="logo" xmlns="http://www.w3.org/2000/svg" xmlns:xlink="http://www.w3.org/1999/xlink" x="0px" y="0px"
	 viewBox="0 0 68 92.9" style="enable-background:new 0 0 68 92.9;" xml:space="preserve">
<g id="Group_11">
	<path id="Path_1" d="M44.8,6.9c1.1,0.5,2.1,1.1,3.1,1.8c1.4,1.2,2.7,2.5,4,3.9c0.8,0.8,1.3,1,2.1,0c1.4-1.5,2.8-3,4.4-4.3
		c1.3-1.2,3.1-1.5,4.7-0.8c1.6,0.6,2.8,2.1,2.9,3.8c0.2,1.4-0.3,2.9-1.4,3.9c-1.4,1.4-2.8,2.8-4.2,4.2c-0.7,0.6-0.6,1,0,1.7
		c1.4,1.3,2.8,2.7,4.1,4.1c2.1,2.2,2.1,4.9,0.2,6.8c-2,1.9-4.6,1.8-6.8-0.3c-1.3-1.3-2.7-2.6-4-4c-0.7-0.7-1.1-0.8-1.8,0
		c-1.4,1.5-2.8,3-4.4,4.3c-1.8,1.7-4.6,1.7-6.4,0c-1.8-1.8-1.9-4.7-0.2-6.5c0,0,0,0,0,0c1.4-1.6,2.9-3,4.5-4.5
		c0.6-0.6,0.5-0.9,0-1.5c-1.6-1.5-3.1-3-4.6-4.6c-1.3-1.4-1.6-3.4-0.7-5C41.2,8.1,42.9,7,44.8,6.9z"/>
	<path id="Path_2" d="M22.8,11.9c0.1-1.6,1-3.1,2.5-3.8c1.4-0.8,3.2-0.6,4.3,0.6c3,2.9,6,5.9,8.9,8.9c1.4,1.5,1.4,3.9-0.1,5.4
		c-1.5,1.6-3.9,1.7-5.6,0.3c-3.1-2.9-6-5.9-8.9-9C23.5,13.6,23.1,12.8,22.8,11.9z"/>
	<path id="Path_3" d="M48,45.1c-0.2,2.2-0.9,3.4-2.4,4c-1.4,0.7-3.1,0.5-4.2-0.5c-3.1-2.9-6.1-5.9-9-9c-1.5-1.6-1.4-4,0.2-5.5
		c0,0,0.1,0,0.1-0.1c1.5-1.6,4-1.6,5.6-0.1c3,2.8,5.9,5.7,8.7,8.7C47.5,43.4,47.8,44.2,48,45.1z"/>
	<path id="Path_4" d="M60.7,49.7c-1-0.4-2-0.9-2.8-1.5c-2.8-2.7-5.6-5.5-8.3-8.3c-1.6-1.6-1.7-4.1-0.1-5.8s4.1-1.7,5.8-0.1
		c0,0,0.1,0.1,0.1,0.1c2.8,2.7,5.6,5.5,8.3,8.3c1.3,1.2,1.7,3,0.9,4.6C63.8,48.6,62.3,49.6,60.7,49.7z"/>
	<path id="Path_5" d="M43.4,66.3c-1.4-0.1-2.6-0.9-3.1-2.2c-0.8-1.4-0.6-3.2,0.5-4.4c2.9-3.1,5.9-6.1,9-9c1.7-1.5,4.3-1.3,5.7,0.4
		c1.3,1.5,1.3,3.7,0,5.2c-1.1,1.3-2.3,2.4-3.5,3.6c-1.6,1.6-3.2,3.2-4.8,4.8C46.3,65.8,44.9,66.4,43.4,66.3z"/>
	<path id="Path_6" d="M30.5,45.1c0.1,1.4-0.6,2.6-1.8,3.3c-1.2,0.7-2.7,0.6-3.7-0.3c-3.1-2.9-6.1-5.9-9-9c-1.2-1.3-1.1-3.3,0.3-4.5
		c0,0,0,0,0,0c1.2-1.3,3.3-1.3,4.6-0.1c3,2.8,5.8,5.8,8.7,8.7c0.2,0.2,0.3,0.4,0.4,0.6C30.3,44.3,30.4,44.8,30.5,45.1z"/>
	<path id="Path_7" d="M16.3,54.2c0-2.2,1.9-3.3,3.5-2.4c0.4,0.3,0.8,0.6,1.1,1c2.5,2.5,5,4.9,7.3,7.4c0.6,0.6,1,1.5,1.1,2.4
		c-0.1,1.3-1.2,2.2-2.5,2.1c-0.5,0-1-0.3-1.4-0.7c-2.9-2.8-5.8-5.7-8.6-8.6C16.7,55,16.5,54.6,16.3,54.2z"/>
	<path id="Path_8" d="M35.6,6.8c-1.9,0-3.4-1.5-3.4-3.4c0,0,0,0,0,0c0-1.8,1.4-3.3,3.2-3.4c0,0,0,0,0,0c1.8-0.1,3.4,1.3,3.5,3.2
		c0,0,0,0.1,0,0.1C39,5.2,37.5,6.8,35.6,6.8C35.6,6.8,35.6,6.8,35.6,6.8z"/>
	<path id="Path_9" d="M27.1,25.2c1.9,0,3.4,1.5,3.5,3.4c0,1.8-1.4,3.3-3.3,3.4c-1.9,0.1-3.5-1.4-3.6-3.3
		C23.7,26.8,25.2,25.2,27.1,25.2z"/>
	<path id="Path_10" d="M49,3.3C49,1.5,50.5,0,52.3,0c0.1,0,0.1,0,0.2,0c1.8,0,3.2,1.5,3.2,3.3c0,0,0,0.1,0,0.1
		c0,1.9-1.5,3.4-3.3,3.4c-1.9,0-3.4-1.5-3.4-3.3C49,3.4,49,3.4,49,3.3z"/>
	<path id="Path_11" d="M10.3,32c-1.9,0-3.5-1.5-3.5-3.4c0-1.9,1.6-3.4,3.5-3.4s3.4,1.6,3.4,3.5C13.6,30.5,12.2,31.9,10.3,32z"/>
	<path id="Path_12" d="M13.7,45.5c-0.1,1.9-1.6,3.4-3.5,3.3c0,0,0,0,0,0c-1.8-0.1-3.3-1.6-3.3-3.4c0.1-1.9,1.6-3.4,3.5-3.4
		C12.2,42,13.7,43.6,13.7,45.5z"/>
	<path id="Path_13" d="M15.3,20.1c0.1-1.9,1.6-3.3,3.5-3.3c1.8,0.1,3.3,1.5,3.3,3.3c0,1.9-1.5,3.4-3.4,3.4c0,0,0,0,0,0
		C16.8,23.6,15.3,22.1,15.3,20.1C15.3,20.2,15.3,20.2,15.3,20.1z"/>
	<path id="Path_14" d="M35.5,50.4c1.9,0,3.4,1.5,3.4,3.3c0,0,0,0.1,0,0.1c0,1.9-1.5,3.4-3.4,3.4c-1.9,0-3.4-1.5-3.4-3.4l0,0
		c0-1.8,1.4-3.4,3.3-3.4C35.4,50.4,35.5,50.4,35.5,50.4z"/>
	<path id="Path_15" d="M13.1,11.7c0.1,1.6-1.1,2.9-2.7,3s-2.9-1.1-3-2.7c0,0,0-0.1,0-0.1c0-1.6,1.2-2.8,2.8-2.9
		C11.8,9,13,10.2,13.1,11.7z"/>
	<path id="Path_16" d="M10.3,59.4c1.5,0,2.8,1.3,2.8,2.8c0,0,0,0,0,0.1c0,1.6-1.3,2.8-2.9,2.8c-1.6,0-2.8-1.3-2.8-2.9
		c0-1.5,1.2-2.8,2.7-2.8C10.2,59.4,10.3,59.4,10.3,59.4z"/>
	<path id="Path_17" d="M63.6,62.2c0.1,1.6-1.2,2.9-2.7,2.9c-1.6,0.1-2.9-1.2-2.9-2.7c0,0,0-0.1,0-0.1c-0.1-1.6,1.2-2.9,2.7-2.9
		c1.6-0.1,2.9,1.2,2.9,2.7C63.6,62.1,63.6,62.1,63.6,62.2z"/>
	<path id="Path_18" d="M3.7,3.3c0,1-0.8,1.9-1.9,1.9C0.9,5.2,0.1,4.4,0,3.5c0-1,0.7-1.8,1.7-1.9C2.7,1.5,3.6,2.2,3.7,3.3
		C3.7,3.3,3.7,3.3,3.7,3.3z"/>
	<path id="Path_19" d="M20.5,3.4c0,1-0.8,1.8-1.8,1.8c-1,0-1.8-0.8-1.8-1.8c0,0,0-0.1,0-0.1c0-1,0.9-1.8,1.9-1.8
		C19.8,1.6,20.5,2.4,20.5,3.4z"/>
	<path id="Path_20" d="M1.9,38.9c-1-0.1-1.7-0.8-1.9-1.7c-0.1-1,0.7-1.9,1.7-1.9c0,0,0,0,0.1,0c1,0,1.8,0.7,1.9,1.7
		C3.7,37.9,2.9,38.7,1.9,38.9z"/>
	<path id="Path_21" d="M1.8,55.7c-1-0.1-1.8-1-1.8-2c0.1-1,0.9-1.7,1.9-1.7c1,0,1.8,0.9,1.8,1.9C3.5,54.9,2.8,55.6,1.8,55.7z"/>
	<path id="Path_22" d="M1.8,22.1c-1-0.1-1.8-1-1.8-2c0.1-1,0.9-1.7,1.9-1.7c1,0,1.8,0.9,1.8,1.9C3.5,21.3,2.8,22,1.8,22.1z"/>
</g>
<g id="Group_12" transform="translate(1.574 72.448)">
	<path id="Path_23" d="M6.7,20.4c-1.2,0-2.4-0.1-3.5-0.4c-0.9-0.2-1.7-0.6-2.4-1.2C0.3,18.4,0,17.7,0,17c0-0.4,0.1-0.8,0.3-1.1
		c0.2-0.3,0.5-0.6,0.8-0.8c0.5,1,1.3,1.9,2.3,2.5c0.9,0.6,2,0.9,3.1,0.9c1.3,0,2.5-0.2,3.7-0.8c0.9-0.4,1.5-1.3,1.4-2.3
		c0-0.5-0.2-1-0.6-1.4c-0.4-0.4-1-0.7-1.5-1c-0.6-0.3-1.3-0.6-2-0.8s-1.5-0.6-2.2-0.9c-0.7-0.3-1.4-0.7-2.1-1.1
		c-0.6-0.4-1.1-1-1.5-1.6C1.4,7.8,1.2,7,1.2,6.3c0-0.9,0.2-1.7,0.7-2.4c0.5-0.8,1.2-1.4,2-1.9c0.9-0.6,2-1,3-1.3
		c1.3-0.3,2.6-0.5,3.9-0.5c1,0,2,0.1,3,0.3c0.7,0.2,1.4,0.5,2,0.9c0.5,0.3,0.7,0.8,0.7,1.4c0,0.7-0.2,1.3-0.8,1.8
		c-0.6,0.4-1.2,0.6-1.9,0.6c-0.8,0-1.5-0.2-2.1-0.8c-0.6-0.6-1-1.3-1.3-2.2C9,2.3,7.5,2.8,6.2,3.5C5.3,4,4.7,4.9,4.7,5.9
		c0,0.5,0.2,1,0.6,1.3c0.4,0.4,1,0.7,1.5,0.9c0.6,0.3,1.3,0.5,2,0.8c0.7,0.3,1.5,0.6,2.2,0.9c0.7,0.3,1.4,0.7,2.1,1.1
		c0.6,0.4,1.1,0.9,1.5,1.6c0.4,0.7,0.6,1.4,0.6,2.2c0,0.8-0.2,1.5-0.5,2.2c-0.4,0.7-0.9,1.4-1.6,1.8c-0.8,0.6-1.7,1-2.6,1.3
		C9.2,20.3,8,20.4,6.7,20.4z"/>
	<path id="Path_24" d="M22.2,20.4c-0.5,0-1.1-0.1-1.5-0.5c-0.3-0.5-0.5-1.1-0.5-1.7c0-0.5,0-1.2,0.1-1.9c0.1-0.8,0.2-1.7,0.3-2.9
		c0.2-1.2,0.4-2.6,0.6-4.3c0.3-1.7,0.6-3.8,1-6.2l-0.8-1.6c0.6-0.3,1.1-0.6,1.7-0.8c0.5-0.2,1-0.3,1.5-0.3c0.8,0,1.2,0.5,1.2,1.4
		c0,0.4-0.1,0.7-0.1,1.1c-0.1,0.6-0.2,1.2-0.3,2.1c-0.1,0.8-0.3,1.7-0.5,2.7c-0.2,1-0.3,2-0.5,3c-0.2,1-0.3,2-0.4,2.9
		c-0.1,0.9-0.2,1.7-0.3,2.4c-0.1,0.5-0.1,1.1-0.1,1.6c0,0.5,0,0.9,0.2,1.4c0.1,0.4,0.3,0.7,0.5,1C23.7,20.2,23,20.4,22.2,20.4z
		 M22.9,13.3l-0.1-1.7l2.6-2c1.3-0.9,2.3-1.8,3.2-2.5c0.7-0.6,1.4-1.3,2-2c0.5-0.5,0.8-1.1,1.1-1.7c0.2-0.5,0.3-1.1,0.3-1.7
		c0-0.1,0-0.3-0.1-0.4c0-0.2-0.1-0.3-0.2-0.5c0.5-0.4,1.2-0.6,1.9-0.6c1,0,1.8,0.7,1.8,1.7c0,0.1,0,0.1,0,0.2c0,0.8-0.3,1.5-0.7,2.2
		c-0.6,0.9-1.4,1.7-2.2,2.4c-1.3,1.1-2.6,2-4,2.9L22.9,13.3z M33.1,20.4c-0.5,0-1-0.1-1.4-0.4c-0.5-0.4-0.9-0.8-1.2-1.3
		c-0.5-0.9-1-1.9-1.4-2.9l-2.5-5.6l2.7-1.9c0.5,1.2,1,2.4,1.5,3.6c0.5,1.2,1.1,2.3,1.6,3.3c0.5,0.9,1,1.8,1.6,2.6
		c0.4,0.6,0.9,1.2,1.4,1.6c-0.2,0.2-0.4,0.3-0.6,0.4c-0.3,0.1-0.5,0.2-0.8,0.3C33.6,20.4,33.3,20.4,33.1,20.4L33.1,20.4z"/>
	<path id="Path_25" d="M40,20.4c-0.6,0-1.2-0.1-1.8-0.3c-0.5-0.2-1-0.5-1.4-0.9c-0.4-0.4-0.6-0.9-0.6-1.4c0-0.5,0.2-0.9,0.5-1.3
		c0.4-0.4,0.9-0.6,1.5-0.6c0.5,0,1.1,0.1,1.5,0.5c0.4,0.3,0.7,0.7,1,1.2c0.2,0.5,0.4,1,0.6,1.5l-0.7-0.5c0.6,0,1.1-0.2,1.6-0.4
		c0.5-0.2,0.9-0.6,1.1-1c0.4-0.6,0.6-1.2,0.8-1.9c0.3-1,0.5-2,0.6-3L46,2.9l3.4-1.3l-1.5,10.8c-0.2,1.2-0.5,2.5-0.9,3.6
		c-0.3,0.9-0.9,1.8-1.5,2.5c-0.6,0.6-1.4,1.1-2.3,1.4C42.2,20.3,41.1,20.4,40,20.4z M45.3,4.5c-1.8,0.1-3.6-0.1-5.4-0.6
		c-0.9-0.3-1.6-1.1-1.6-2.1c0-0.3,0-0.7,0.1-1c0.1-0.3,0.2-0.6,0.3-0.8c0.8,0.4,1.6,0.7,2.4,1c0.8,0.3,1.7,0.6,2.6,0.8
		c0.8,0.2,1.5,0.3,2.3,0.4c0.2-0.6,0.5-1.1,0.9-1.5c0.4-0.3,0.9-0.5,1.5-0.5c0.5,0,1,0.1,1.3,0.4c0.3,0.3,0.5,0.8,0.5,1.3
		c0,0.8-0.4,1.6-1.2,2C47.9,4.4,46.6,4.6,45.3,4.5L45.3,4.5z"/>
	<path id="Path_26" d="M55.3,20.4c-0.5,0-1.1-0.1-1.5-0.5c-0.3-0.5-0.5-1.1-0.5-1.7c0-0.5,0-1.1,0.1-1.9c0.1-0.7,0.2-1.7,0.3-2.8
		c0.2-1.1,0.4-2.6,0.6-4.3c0.3-1.7,0.6-3.8,1-6.3l-0.8-1.6c0.5-0.3,1.1-0.6,1.7-0.8c0.5-0.2,1-0.3,1.5-0.3c0.8,0,1.2,0.5,1.2,1.4
		c0,0.4-0.1,0.7-0.1,1.1c-0.1,0.6-0.2,1.2-0.3,2.1c-0.1,0.8-0.3,1.7-0.5,2.7c-0.2,1-0.3,2-0.5,3c-0.2,1-0.3,2-0.4,2.9
		c-0.1,0.9-0.2,1.7-0.3,2.4c-0.1,0.5-0.1,1.1-0.1,1.6c0,0.5,0,0.9,0.2,1.4c0.1,0.4,0.3,0.7,0.5,1C56.8,20.2,56,20.4,55.3,20.4z
		 M60.1,12.2c-0.5,0-1,0-1.5-0.1c-0.5-0.1-1.1-0.2-1.8-0.4l0.4-1.9c0.5,0.1,1.1,0.1,1.7,0.2c0.6,0,1.2,0.1,1.8,0.1l2-0.5
		c0,0.1,0,0.2,0,0.3s0,0.2,0,0.3c0,0.6-0.2,1.1-0.6,1.5C61.4,12,60.7,12.2,60.1,12.2L60.1,12.2z M63.1,4c-0.7,0-1.4,0-2.1-0.1
		c-0.7-0.1-1.4-0.2-2-0.3c-0.7-0.2-1.4-0.4-2-0.6l0.6-1.6c1.1,0,2.1,0,3.2-0.1c0.9-0.1,1.8-0.2,2.7-0.4c0.9-0.2,1.8-0.4,2.9-0.6
		c0.1,0.2,0.1,0.4,0.1,0.6c0,0.2,0,0.4,0,0.5c0,0.5-0.1,1.1-0.5,1.5c-0.3,0.4-0.8,0.7-1.2,0.8C64.2,4,63.6,4,63.1,4L63.1,4z"/>
</g>
</svg>
